<svg version="1.1" viewBox="0.0 0.0 504.0 112.58267716535433" fill="none" stroke="none" stroke-linecap="square" stroke-miterlimit="10" xmlns:xlink="http://www.w3.org/1999/xlink" xmlns="http://www.w3.org/2000/svg"><clipPath id="p.0"><path d="m0 0l504.0 0l0 112.58268l-504.0 0l0 -112.58268z" clip-rule="nonzero"/></clipPath><g clip-path="url(#p.0)"><path fill="#000000" fill-opacity="0.0" d="m0 0l504.0 0l0 112.58268l-504.0 0z" fill-rule="evenodd"/><path fill="#cfe2f3" d="m5.8267717 44.90551l61.54331 0l0 61.543312l-61.54331 0z" fill-rule="evenodd"/><path stroke="#000000" stroke-width="1.0" stroke-linejoin="round" stroke-linecap="butt" d="m5.8267717 44.90551l61.54331 0l0 61.543312l-61.54331 0z" fill-rule="evenodd"/><path fill="#000000" d="m44.020298 77.19404q0 2.34375 -0.46875 4.28125q-0.46875 1.921875 -1.421875 3.3125q-0.953125 1.375 -2.375 2.140625q-1.40625 0.75 -3.3124962 0.75q-1.640625 0 -2.984375 -0.609375q-1.34375 -0.625 -2.296877 -1.90625q-0.953125 -1.28125 -1.46875 -3.265625q-0.515625 -1.984375 -0.515625 -4.703125q0 -2.34375 0.46875 -4.28125q0.484375 -1.9375 1.421875 -3.3125q0.9531269 -1.390625 2.375002 -2.140625q1.421875 -0.765625 3.3125 -0.765625q1.6406212 0 2.9843712 0.625q1.34375 0.609375 2.296875 1.90625q0.953125 1.28125 1.46875 3.265625q0.515625 1.984375 0.515625 4.703125zm-2.75 0.09375q0 -0.53125 -0.046875 -1.046875q-0.03125 -0.53125 -0.078125 -1.03125l-8.640621 6.421875q0.234375 0.8125 0.59375 1.5q0.359375 0.6875 0.859375 1.1875q0.515625 0.484375 1.15625 0.765625q0.65625 0.265625 1.484375 0.265625q1.0625 0 1.9218712 -0.515625q0.875 -0.515625 1.484375 -1.53125q0.609375 -1.015625 0.9375 -2.515625q0.328125 -1.515625 0.328125 -3.5zm-9.343748 -0.1875q0 0.484375 0 0.96875q0.015625 0.484375 0.0625 0.9375l8.640623 -6.390625q-0.234375 -0.796875 -0.59375 -1.453125q-0.359375 -0.65625 -0.859375 -1.125q-0.5 -0.484375 -1.140625 -0.75q-0.6406212 -0.265625 -1.4374962 -0.265625q-1.0625 0 -1.9375 0.515625q-0.859375 0.515625 -1.46875 1.546875q-0.609375 1.015625 -0.9375 2.53125q-0.3281269 1.5 -0.3281269 3.484375z" fill-rule="nonzero"/><path fill="#cfe2f3" d="m67.37008 44.90551l61.543312 0l0 61.543312l-61.543312 0z" fill-rule="evenodd"/><path stroke="#000000" stroke-width="1.0" stroke-linejoin="round" stroke-linecap="butt" d="m67.37008 44.90551l61.543312 0l0 61.543312l-61.543312 0z" fill-rule="evenodd"/><path fill="#000000" d="m104.92298 87.39716l-12.828125 0l0 -2.53125l5.25 0l0 -14.90625l-4.890625 2.65625l-1.0 -2.3125l6.5 -3.421875l2.40625 0l0 17.984375l4.5625 0l0 2.53125z" fill-rule="nonzero"/><path fill="#cfe2f3" d="m128.91339 44.90551l61.543304 0l0 61.543312l-61.543304 0z" fill-rule="evenodd"/><path stroke="#000000" stroke-width="1.0" stroke-linejoin="round" stroke-linecap="butt" d="m128.91339 44.90551l61.543304 0l0 61.543312l-61.543304 0z" fill-rule="evenodd"/><path fill="#000000" d="m167.10692 77.19404q0 2.34375 -0.46875 4.28125q-0.46875 1.921875 -1.421875 3.3125q-0.953125 1.375 -2.375 2.140625q-1.40625 0.75 -3.3125 0.75q-1.640625 0 -2.984375 -0.609375q-1.34375 -0.625 -2.296875 -1.90625q-0.953125 -1.28125 -1.46875 -3.265625q-0.515625 -1.984375 -0.515625 -4.703125q0 -2.34375 0.46875 -4.28125q0.484375 -1.9375 1.421875 -3.3125q0.953125 -1.390625 2.375 -2.140625q1.421875 -0.765625 3.3125 -0.765625q1.640625 0 2.984375 0.625q1.34375 0.609375 2.296875 1.90625q0.953125 1.28125 1.46875 3.265625q0.515625 1.984375 0.515625 4.703125zm-2.75 0.09375q0 -0.53125 -0.046875 -1.046875q-0.03125 -0.53125 -0.078125 -1.03125l-8.640625 6.421875q0.234375 0.8125 0.59375 1.5q0.359375 0.6875 0.859375 1.1875q0.515625 0.484375 1.15625 0.765625q0.65625 0.265625 1.484375 0.265625q1.0625 0 1.921875 -0.515625q0.875 -0.515625 1.484375 -1.53125q0.609375 -1.015625 0.9375 -2.515625q0.328125 -1.515625 0.328125 -3.5zm-9.34375 -0.1875q0 0.484375 0 0.96875q0.015625 0.484375 0.0625 0.9375l8.640625 -6.390625q-0.234375 -0.796875 -0.59375 -1.453125q-0.359375 -0.65625 -0.859375 -1.125q-0.5 -0.484375 -1.140625 -0.75q-0.640625 -0.265625 -1.4375 -0.265625q-1.0625 0 -1.9375 0.515625q-0.859375 0.515625 -1.46875 1.546875q-0.609375 1.015625 -0.9375 2.53125q-0.328125 1.5 -0.328125 3.484375z" fill-rule="nonzero"/><path fill="#cfe2f3" d="m190.4567 44.90551l61.543304 0l0 61.543312l-61.543304 0z" fill-rule="evenodd"/><path stroke="#000000" stroke-width="1.0" stroke-linejoin="round" stroke-linecap="butt" d="m190.4567 44.90551l61.543304 0l0 61.543312l-61.543304 0z" fill-rule="evenodd"/><path fill="#000000" d="m228.65022 77.19404q0 2.34375 -0.46875 4.28125q-0.46875 1.921875 -1.421875 3.3125q-0.953125 1.375 -2.375 2.140625q-1.40625 0.75 -3.3125 0.75q-1.640625 0 -2.984375 -0.609375q-1.34375 -0.625 -2.296875 -1.90625q-0.953125 -1.28125 -1.46875 -3.265625q-0.515625 -1.984375 -0.515625 -4.703125q0 -2.34375 0.46875 -4.28125q0.484375 -1.9375 1.421875 -3.3125q0.953125 -1.390625 2.375 -2.140625q1.421875 -0.765625 3.3125 -0.765625q1.640625 0 2.984375 0.625q1.34375 0.609375 2.296875 1.90625q0.953125 1.28125 1.46875 3.265625q0.515625 1.984375 0.515625 4.703125zm-2.75 0.09375q0 -0.53125 -0.046875 -1.046875q-0.03125 -0.53125 -0.078125 -1.03125l-8.640625 6.421875q0.234375 0.8125 0.59375 1.5q0.359375 0.6875 0.859375 1.1875q0.515625 0.484375 1.15625 0.765625q0.65625 0.265625 1.484375 0.265625q1.0625 0 1.921875 -0.515625q0.875 -0.515625 1.484375 -1.53125q0.609375 -1.015625 0.9375 -2.515625q0.328125 -1.515625 0.328125 -3.5zm-9.34375 -0.1875q0 0.484375 0 0.96875q0.015625 0.484375 0.0625 0.9375l8.640625 -6.390625q-0.234375 -0.796875 -0.59375 -1.453125q-0.359375 -0.65625 -0.859375 -1.125q-0.5 -0.484375 -1.140625 -0.75q-0.640625 -0.265625 -1.4375 -0.265625q-1.0625 0 -1.9375 0.515625q-0.859375 0.515625 -1.46875 1.546875q-0.609375 1.015625 -0.9375 2.53125q-0.328125 1.5 -0.328125 3.484375z" fill-rule="nonzero"/><path fill="#cfe2f3" d="m252.0 44.90551l61.543304 0l0 61.543312l-61.543304 0z" fill-rule="evenodd"/><path stroke="#000000" stroke-width="1.0" stroke-linejoin="round" stroke-linecap="butt" d="m252.0 44.90551l61.543304 0l0 61.543312l-61.543304 0z" fill-rule="evenodd"/><path fill="#000000" d="m290.19354 77.19404q0 2.34375 -0.46875 4.28125q-0.46875 1.921875 -1.421875 3.3125q-0.953125 1.375 -2.375 2.140625q-1.40625 0.75 -3.3125 0.75q-1.640625 0 -2.984375 -0.609375q-1.34375 -0.625 -2.296875 -1.90625q-0.953125 -1.28125 -1.46875 -3.265625q-0.515625 -1.984375 -0.515625 -4.703125q0 -2.34375 0.46875 -4.28125q0.484375 -1.9375 1.421875 -3.3125q0.953125 -1.390625 2.375 -2.140625q1.421875 -0.765625 3.3125 -0.765625q1.640625 0 2.984375 0.625q1.34375 0.609375 2.296875 1.90625q0.953125 1.28125 1.46875 3.265625q0.515625 1.984375 0.515625 4.703125zm-2.75 0.09375q0 -0.53125 -0.046875 -1.046875q-0.03125 -0.53125 -0.078125 -1.03125l-8.640625 6.421875q0.234375 0.8125 0.59375 1.5q0.359375 0.6875 0.859375 1.1875q0.515625 0.484375 1.15625 0.765625q0.65625 0.265625 1.484375 0.265625q1.0625 0 1.921875 -0.515625q0.875 -0.515625 1.484375 -1.53125q0.609375 -1.015625 0.9375 -2.515625q0.328125 -1.515625 0.328125 -3.5zm-9.34375 -0.1875q0 0.484375 0 0.96875q0.015625 0.484375 0.0625 0.9375l8.640625 -6.390625q-0.234375 -0.796875 -0.59375 -1.453125q-0.359375 -0.65625 -0.859375 -1.125q-0.5 -0.484375 -1.140625 -0.75q-0.640625 -0.265625 -1.4375 -0.265625q-1.0625 0 -1.9375 0.515625q-0.859375 0.515625 -1.46875 1.546875q-0.609375 1.015625 -0.9375 2.53125q-0.328125 1.5 -0.328125 3.484375z" fill-rule="nonzero"/><path fill="#cfe2f3" d="m313.5433 44.90551l61.543304 0l0 61.543312l-61.543304 0z" fill-rule="evenodd"/><path stroke="#000000" stroke-width="1.0" stroke-linejoin="round" stroke-linecap="butt" d="m313.5433 44.90551l61.543304 0l0 61.543312l-61.543304 0z" fill-rule="evenodd"/><path fill="#000000" d="m351.73685 77.19404q0 2.34375 -0.46875 4.28125q-0.46875 1.921875 -1.421875 3.3125q-0.953125 1.375 -2.375 2.140625q-1.40625 0.75 -3.3125 0.75q-1.640625 0 -2.984375 -0.609375q-1.34375 -0.625 -2.296875 -1.90625q-0.953125 -1.28125 -1.46875 -3.265625q-0.515625 -1.984375 -0.515625 -4.703125q0 -2.34375 0.46875 -4.28125q0.484375 -1.9375 1.421875 -3.3125q0.953125 -1.390625 2.375 -2.140625q1.421875 -0.765625 3.3125 -0.765625q1.640625 0 2.984375 0.625q1.34375 0.609375 2.296875 1.90625q0.953125 1.28125 1.46875 3.265625q0.515625 1.984375 0.515625 4.703125zm-2.75 0.09375q0 -0.53125 -0.046875 -1.046875q-0.03125 -0.53125 -0.078125 -1.03125l-8.640625 6.421875q0.234375 0.8125 0.59375 1.5q0.359375 0.6875 0.859375 1.1875q0.515625 0.484375 1.15625 0.765625q0.65625 0.265625 1.484375 0.265625q1.0625 0 1.921875 -0.515625q0.875 -0.515625 1.484375 -1.53125q0.609375 -1.015625 0.9375 -2.515625q0.328125 -1.515625 0.328125 -3.5zm-9.34375 -0.1875q0 0.484375 0 0.96875q0.015625 0.484375 0.0625 0.9375l8.640625 -6.390625q-0.234375 -0.796875 -0.59375 -1.453125q-0.359375 -0.65625 -0.859375 -1.125q-0.5 -0.484375 -1.140625 -0.75q-0.640625 -0.265625 -1.4375 -0.265625q-1.0625 0 -1.9375 0.515625q-0.859375 0.515625 -1.46875 1.546875q-0.609375 1.015625 -0.9375 2.53125q-0.328125 1.5 -0.328125 3.484375z" fill-rule="nonzero"/><path fill="#cfe2f3" d="m375.0866 44.90551l61.543304 0l0 61.543312l-61.543304 0z" fill-rule="evenodd"/><path stroke="#000000" stroke-width="1.0" stroke-linejoin="round" stroke-linecap="butt" d="m375.0866 44.90551l61.543304 0l0 61.543312l-61.543304 0z" fill-rule="evenodd"/><path fill="#000000" d="m413.28015 77.19404q0 2.34375 -0.46875 4.28125q-0.46875 1.921875 -1.421875 3.3125q-0.953125 1.375 -2.375 2.140625q-1.40625 0.75 -3.3125 0.75q-1.640625 0 -2.984375 -0.609375q-1.34375 -0.625 -2.296875 -1.90625q-0.953125 -1.28125 -1.46875 -3.265625q-0.515625 -1.984375 -0.515625 -4.703125q0 -2.34375 0.46875 -4.28125q0.484375 -1.9375 1.421875 -3.3125q0.953125 -1.390625 2.375 -2.140625q1.421875 -0.765625 3.3125 -0.765625q1.640625 0 2.984375 0.625q1.34375 0.609375 2.296875 1.90625q0.953125 1.28125 1.46875 3.265625q0.515625 1.984375 0.515625 4.703125zm-2.75 0.09375q0 -0.53125 -0.046875 -1.046875q-0.03125 -0.53125 -0.078125 -1.03125l-8.640625 6.421875q0.234375 0.8125 0.59375 1.5q0.359375 0.6875 0.859375 1.1875q0.515625 0.484375 1.15625 0.765625q0.65625 0.265625 1.484375 0.265625q1.0625 0 1.921875 -0.515625q0.875 -0.515625 1.484375 -1.53125q0.609375 -1.015625 0.9375 -2.515625q0.328125 -1.515625 0.328125 -3.5zm-9.34375 -0.1875q0 0.484375 0 0.96875q0.015625 0.484375 0.0625 0.9375l8.640625 -6.390625q-0.234375 -0.796875 -0.59375 -1.453125q-0.359375 -0.65625 -0.859375 -1.125q-0.5 -0.484375 -1.140625 -0.75q-0.640625 -0.265625 -1.4375 -0.265625q-1.0625 0 -1.9375 0.515625q-0.859375 0.515625 -1.46875 1.546875q-0.609375 1.015625 -0.9375 2.53125q-0.328125 1.5 -0.328125 3.484375z" fill-rule="nonzero"/><path fill="#cfe2f3" d="m436.6299 44.90551l61.543304 0l0 61.543312l-61.543304 0z" fill-rule="evenodd"/><path stroke="#000000" stroke-width="1.0" stroke-linejoin="round" stroke-linecap="butt" d="m436.6299 44.90551l61.543304 0l0 61.543312l-61.543304 0z" fill-rule="evenodd"/><path fill="#000000" d="m474.18283 87.39716l-12.828125 0l0 -2.53125l5.25 0l0 -14.90625l-4.890625 2.65625l-1.0 -2.3125l6.5 -3.421875l2.40625 0l0 17.984375l4.5625 0l0 2.53125z" fill-rule="nonzero"/><path fill="#000000" fill-opacity="0.0" d="m5.8267717 6.133858l61.54331 0l0 38.771652l-61.54331 0z" fill-rule="evenodd"/><path fill="#000000" d="m21.762487 30.493858l0 -11.453125l4.296875 0q1.3125 0 2.109375 0.34375q0.796875 0.34375 1.234375 1.078125q0.453125 0.71875 0.453125 1.5q0 0.734375 -0.40625 1.390625q-0.390625 0.640625 -1.1875 1.046875q1.03125 0.296875 1.59375 1.03125q0.5625 0.734375 0.5625 1.734375q0 0.8125 -0.34375 1.5q-0.34375 0.6875 -0.84375 1.0625q-0.5 0.375 -1.25 0.578125q-0.75 0.1875 -1.84375 0.1875l-4.375 0zm1.515625 -6.640625l2.484375 0q1.0 0 1.4375 -0.140625q0.578125 -0.171875 0.875 -0.5625q0.296875 -0.40625 0.296875 -1.0q0 -0.578125 -0.28125 -1.0q-0.265625 -0.4375 -0.78125 -0.59375q-0.5 -0.171875 -1.734375 -0.171875l-2.296875 0l0 3.46875zm0 5.28125l2.859375 0q0.734375 0 1.03125 -0.046875q0.515625 -0.09375 0.859375 -0.3125q0.359375 -0.21875 0.578125 -0.640625q0.234375 -0.421875 0.234375 -0.96875q0 -0.640625 -0.328125 -1.109375q-0.328125 -0.46875 -0.90625 -0.65625q-0.578125 -0.203125 -1.671875 -0.203125l-2.65625 0l0 3.9375zm9.046877 -8.484375l0 -1.609375l1.40625 0l0 1.609375l-1.40625 0zm0 9.84375l0 -8.296875l1.40625 0l0 8.296875l-1.40625 0zm6.6171837 -1.265625l0.203125 1.25q-0.59375 0.125 -1.0625 0.125q-0.7656212 0 -1.1874962 -0.234375q-0.421875 -0.25 -0.59375 -0.640625q-0.171875 -0.40625 -0.171875 -1.671875l0 -4.765625l-1.03125 0l0 -1.09375l1.03125 0l0 -2.0625l1.40625 -0.84375l0 2.90625l1.4062462 0l0 1.09375l-1.4062462 0l0 4.84375q0 0.609375 0.0625 0.78125q0.078125 0.171875 0.24999619 0.28125q0.171875 0.09375 0.484375 0.09375q0.234375 0 0.609375 -0.0625zm10.734375 1.265625l-1.40625 0l0 -8.96875q-0.515625 0.484375 -1.34375 0.96875q-0.8125 0.484375 -1.46875 0.734375l0 -1.359375q1.171875 -0.5625 2.046875 -1.34375q0.890625 -0.796875 1.265625 -1.53125l0.90625 0l0 11.5z" fill-rule="nonzero"/><path fill="#000000" fill-opacity="0.0" d="m67.37008 6.133858l61.543312 0l0 38.771652l-61.543312 0z" fill-rule="evenodd"/><path fill="#000000" d="m83.30579 30.493858l0 -11.453125l4.296875 0q1.3125 0 2.109375 0.34375q0.796875 0.34375 1.234375 1.078125q0.453125 0.71875 0.453125 1.5q0 0.734375 -0.40625 1.390625q-0.390625 0.640625 -1.1875 1.046875q1.03125 0.296875 1.59375 1.03125q0.5625 0.734375 0.5625 1.734375q0 0.8125 -0.34375 1.5q-0.34375 0.6875 -0.84375 1.0625q-0.5 0.375 -1.25 0.578125q-0.75 0.1875 -1.84375 0.1875l-4.375 0zm1.515625 -6.640625l2.484375 0q1.0 0 1.4375 -0.140625q0.578125 -0.171875 0.875 -0.5625q0.296875 -0.40625 0.296875 -1.0q0 -0.578125 -0.28125 -1.0q-0.265625 -0.4375 -0.78125 -0.59375q-0.5 -0.171875 -1.734375 -0.171875l-2.296875 0l0 3.46875zm0 5.28125l2.859375 0q0.734375 0 1.03125 -0.046875q0.515625 -0.09375 0.859375 -0.3125q0.359375 -0.21875 0.578125 -0.640625q0.234375 -0.421875 0.234375 -0.96875q0 -0.640625 -0.328125 -1.109375q-0.328125 -0.46875 -0.90625 -0.65625q-0.578125 -0.203125 -1.671875 -0.203125l-2.65625 0l0 3.9375zm9.046875 -8.484375l0 -1.609375l1.40625 0l0 1.609375l-1.40625 0zm0 9.84375l0 -8.296875l1.40625 0l0 8.296875l-1.40625 0zm6.6171875 -1.265625l0.203125 1.25q-0.59375 0.125 -1.0625 0.125q-0.765625 0 -1.1875 -0.234375q-0.421875 -0.25 -0.59375 -0.640625q-0.171875 -0.40625 -0.171875 -1.671875l0 -4.765625l-1.03125 0l0 -1.09375l1.03125 0l0 -2.0625l1.40625 -0.84375l0 2.90625l1.40625 0l0 1.09375l-1.40625 0l0 4.84375q0 0.609375 0.0625 0.78125q0.078125 0.171875 0.25 0.28125q0.171875 0.09375 0.484375 0.09375q0.234375 0 0.609375 -0.0625zm12.828125 -0.09375l0 1.359375l-7.578125 0q-0.015625 -0.515625 0.171875 -0.984375q0.28125 -0.765625 0.921875 -1.515625q0.640625 -0.75 1.84375 -1.734375q1.859375 -1.53125 2.515625 -2.421875q0.65625 -0.90625 0.65625 -1.703125q0 -0.828125 -0.59375 -1.40625q-0.59375 -0.578125 -1.5625 -0.578125q-1.015625 0 -1.625 0.609375q-0.609375 0.609375 -0.609375 1.6875l-1.453125 -0.140625q0.15625 -1.625 1.125 -2.46875q0.96875 -0.84375 2.59375 -0.84375q1.65625 0 2.609375 0.921875q0.96875 0.90625 0.96875 2.25q0 0.6875 -0.28125 1.359375q-0.28125 0.65625 -0.9375 1.390625q-0.65625 0.734375 -2.171875 2.015625q-1.265625 1.0625 -1.625 1.453125q-0.359375 0.375 -0.59375 0.75l5.625 0z" fill-rule="nonzero"/><path fill="#000000" fill-opacity="0.0" d="m128.91339 6.133858l61.543304 0l0 38.771652l-61.543304 0z" fill-rule="evenodd"/><path fill="#000000" d="m144.8491 30.493858l0 -11.453125l4.296875 0q1.3125 0 2.109375 0.34375q0.796875 0.34375 1.234375 1.078125q0.453125 0.71875 0.453125 1.5q0 0.734375 -0.40625 1.390625q-0.390625 0.640625 -1.1875 1.046875q1.03125 0.296875 1.59375 1.03125q0.5625 0.734375 0.5625 1.734375q0 0.8125 -0.34375 1.5q-0.34375 0.6875 -0.84375 1.0625q-0.5 0.375 -1.25 0.578125q-0.75 0.1875 -1.84375 0.1875l-4.375 0zm1.515625 -6.640625l2.484375 0q1.0 0 1.4375 -0.140625q0.578125 -0.171875 0.875 -0.5625q0.296875 -0.40625 0.296875 -1.0q0 -0.578125 -0.28125 -1.0q-0.265625 -0.4375 -0.78125 -0.59375q-0.5 -0.171875 -1.734375 -0.171875l-2.296875 0l0 3.46875zm0 5.28125l2.859375 0q0.734375 0 1.03125 -0.046875q0.515625 -0.09375 0.859375 -0.3125q0.359375 -0.21875 0.578125 -0.640625q0.234375 -0.421875 0.234375 -0.96875q0 -0.640625 -0.328125 -1.109375q-0.328125 -0.46875 -0.90625 -0.65625q-0.578125 -0.203125 -1.671875 -0.203125l-2.65625 0l0 3.9375zm9.046875 -8.484375l0 -1.609375l1.40625 0l0 1.609375l-1.40625 0zm0 9.84375l0 -8.296875l1.40625 0l0 8.296875l-1.40625 0zm6.6171875 -1.265625l0.203125 1.25q-0.59375 0.125 -1.0625 0.125q-0.765625 0 -1.1875 -0.234375q-0.421875 -0.25 -0.59375 -0.640625q-0.171875 -0.40625 -0.171875 -1.671875l0 -4.765625l-1.03125 0l0 -1.09375l1.03125 0l0 -2.0625l1.40625 -0.84375l0 2.90625l1.40625 0l0 1.09375l-1.40625 0l0 4.84375q0 0.609375 0.0625 0.78125q0.078125 0.171875 0.25 0.28125q0.171875 0.09375 0.484375 0.09375q0.234375 0 0.609375 -0.0625zm5.4375 -1.765625l1.40625 -0.1875q0.25 1.203125 0.828125 1.734375q0.578125 0.515625 1.421875 0.515625q0.984375 0 1.671875 -0.6875q0.6875 -0.6875 0.6875 -1.703125q0 -0.96875 -0.640625 -1.59375q-0.625 -0.625 -1.609375 -0.625q-0.390625 0 -0.984375 0.15625l0.15625 -1.234375q0.140625 0.015625 0.21875 0.015625q0.90625 0 1.625 -0.46875q0.71875 -0.46875 0.71875 -1.453125q0 -0.765625 -0.53125 -1.265625q-0.515625 -0.515625 -1.34375 -0.515625q-0.828125 0 -1.375 0.515625q-0.546875 0.515625 -0.703125 1.546875l-1.40625 -0.25q0.265625 -1.421875 1.171875 -2.1875q0.921875 -0.78125 2.28125 -0.78125q0.9375 0 1.71875 0.40625q0.796875 0.390625 1.203125 1.09375q0.421875 0.6875 0.421875 1.46875q0 0.75 -0.40625 1.359375q-0.390625 0.609375 -1.171875 0.96875q1.015625 0.234375 1.578125 0.96875q0.5625 0.734375 0.5625 1.84375q0 1.5 -1.09375 2.546875q-1.09375 1.046875 -2.765625 1.046875q-1.5 0 -2.5 -0.890625q-1.0 -0.90625 -1.140625 -2.34375z" fill-rule="nonzero"/><path fill="#000000" fill-opacity="0.0" d="m190.4567 6.133858l61.543304 0l0 38.771652l-61.543304 0z" fill-rule="evenodd"/><path fill="#000000" d="m206.39241 30.493858l0 -11.453125l4.296875 0q1.3125 0 2.109375 0.34375q0.796875 0.34375 1.234375 1.078125q0.453125 0.71875 0.453125 1.5q0 0.734375 -0.40625 1.390625q-0.390625 0.640625 -1.1875 1.046875q1.03125 0.296875 1.59375 1.03125q0.5625 0.734375 0.5625 1.734375q0 0.8125 -0.34375 1.5q-0.34375 0.6875 -0.84375 1.0625q-0.5 0.375 -1.25 0.578125q-0.75 0.1875 -1.84375 0.1875l-4.375 0zm1.515625 -6.640625l2.484375 0q1.0 0 1.4375 -0.140625q0.578125 -0.171875 0.875 -0.5625q0.296875 -0.40625 0.296875 -1.0q0 -0.578125 -0.28125 -1.0q-0.265625 -0.4375 -0.78125 -0.59375q-0.5 -0.171875 -1.734375 -0.171875l-2.296875 0l0 3.46875zm0 5.28125l2.859375 0q0.734375 0 1.03125 -0.046875q0.515625 -0.09375 0.859375 -0.3125q0.359375 -0.21875 0.578125 -0.640625q0.234375 -0.421875 0.234375 -0.96875q0 -0.640625 -0.328125 -1.109375q-0.328125 -0.46875 -0.90625 -0.65625q-0.578125 -0.203125 -1.671875 -0.203125l-2.65625 0l0 3.9375zm9.046875 -8.484375l0 -1.609375l1.40625 0l0 1.609375l-1.40625 0zm0 9.84375l0 -8.296875l1.40625 0l0 8.296875l-1.40625 0zm6.6171875 -1.265625l0.203125 1.25q-0.59375 0.125 -1.0625 0.125q-0.765625 0 -1.1875 -0.234375q-0.421875 -0.25 -0.59375 -0.640625q-0.171875 -0.40625 -0.171875 -1.671875l0 -4.765625l-1.03125 0l0 -1.09375l1.03125 0l0 -2.0625l1.40625 -0.84375l0 2.90625l1.40625 0l0 1.09375l-1.40625 0l0 4.84375q0 0.609375 0.0625 0.78125q0.078125 0.171875 0.25 0.28125q0.171875 0.09375 0.484375 0.09375q0.234375 0 0.609375 -0.0625zm9.9375 1.265625l0 -2.75l-4.96875 0l0 -1.28125l5.234375 -7.421875l1.140625 0l0 7.421875l1.546875 0l0 1.28125l-1.546875 0l0 2.75l-1.40625 0zm0 -4.03125l0 -5.171875l-3.578125 5.171875l3.578125 0z" fill-rule="nonzero"/><path fill="#000000" fill-opacity="0.0" d="m252.0 6.133858l61.543304 0l0 38.771652l-61.543304 0z" fill-rule="evenodd"/><path fill="#000000" d="m267.93573 30.493858l0 -11.453125l4.296875 0q1.3125 0 2.109375 0.34375q0.796875 0.34375 1.234375 1.078125q0.453125 0.71875 0.453125 1.5q0 0.734375 -0.40625 1.390625q-0.390625 0.640625 -1.1875 1.046875q1.03125 0.296875 1.59375 1.03125q0.5625 0.734375 0.5625 1.734375q0 0.8125 -0.34375 1.5q-0.34375 0.6875 -0.84375 1.0625q-0.5 0.375 -1.25 0.578125q-0.75 0.1875 -1.84375 0.1875l-4.375 0zm1.515625 -6.640625l2.484375 0q1.0 0 1.4375 -0.140625q0.578125 -0.171875 0.875 -0.5625q0.296875 -0.40625 0.296875 -1.0q0 -0.578125 -0.28125 -1.0q-0.265625 -0.4375 -0.78125 -0.59375q-0.5 -0.171875 -1.734375 -0.171875l-2.296875 0l0 3.46875zm0 5.28125l2.859375 0q0.734375 0 1.03125 -0.046875q0.515625 -0.09375 0.859375 -0.3125q0.359375 -0.21875 0.578125 -0.640625q0.234375 -0.421875 0.234375 -0.96875q0 -0.640625 -0.328125 -1.109375q-0.328125 -0.46875 -0.90625 -0.65625q-0.578125 -0.203125 -1.671875 -0.203125l-2.65625 0l0 3.9375zm9.046875 -8.484375l0 -1.609375l1.40625 0l0 1.609375l-1.40625 0zm0 9.84375l0 -8.296875l1.40625 0l0 8.296875l-1.40625 0zm6.6171875 -1.265625l0.203125 1.25q-0.59375 0.125 -1.0625 0.125q-0.765625 0 -1.1875 -0.234375q-0.421875 -0.25 -0.59375 -0.640625q-0.171875 -0.40625 -0.171875 -1.671875l0 -4.765625l-1.03125 0l0 -1.09375l1.03125 0l0 -2.0625l1.40625 -0.84375l0 2.90625l1.40625 0l0 1.09375l-1.40625 0l0 4.84375q0 0.609375 0.0625 0.78125q0.078125 0.171875 0.25 0.28125q0.171875 0.09375 0.484375 0.09375q0.234375 0 0.609375 -0.0625zm5.4375 -1.734375l1.46875 -0.125q0.171875 1.078125 0.765625 1.625q0.59375 0.53125 1.4375 0.53125q1.015625 0 1.71875 -0.765625q0.703125 -0.765625 0.703125 -2.03125q0 -1.203125 -0.671875 -1.890625q-0.671875 -0.703125 -1.765625 -0.703125q-0.6875 0 -1.234375 0.3125q-0.546875 0.3125 -0.859375 0.796875l-1.3125 -0.171875l1.109375 -5.875l5.6875 0l0 1.34375l-4.5625 0l-0.625 3.078125q1.03125 -0.71875 2.171875 -0.71875q1.5 0 2.53125 1.046875q1.03125 1.03125 1.03125 2.65625q0 1.5625 -0.90625 2.6875q-1.109375 1.40625 -3.015625 1.40625q-1.5625 0 -2.546875 -0.875q-0.984375 -0.890625 -1.125 -2.328125z" fill-rule="nonzero"/><path fill="#000000" fill-opacity="0.0" d="m313.5433 6.133858l61.543304 0l0 38.771652l-61.543304 0z" fill-rule="evenodd"/><path fill="#000000" d="m329.47903 30.493858l0 -11.453125l4.296875 0q1.3125 0 2.109375 0.34375q0.796875 0.34375 1.234375 1.078125q0.453125 0.71875 0.453125 1.5q0 0.734375 -0.40625 1.390625q-0.390625 0.640625 -1.1875 1.046875q1.03125 0.296875 1.59375 1.03125q0.5625 0.734375 0.5625 1.734375q0 0.8125 -0.34375 1.5q-0.34375 0.6875 -0.84375 1.0625q-0.5 0.375 -1.25 0.578125q-0.75 0.1875 -1.84375 0.1875l-4.375 0zm1.515625 -6.640625l2.484375 0q1.0 0 1.4375 -0.140625q0.578125 -0.171875 0.875 -0.5625q0.296875 -0.40625 0.296875 -1.0q0 -0.578125 -0.28125 -1.0q-0.265625 -0.4375 -0.78125 -0.59375q-0.5 -0.171875 -1.734375 -0.171875l-2.296875 0l0 3.46875zm0 5.28125l2.859375 0q0.734375 0 1.03125 -0.046875q0.515625 -0.09375 0.859375 -0.3125q0.359375 -0.21875 0.578125 -0.640625q0.234375 -0.421875 0.234375 -0.96875q0 -0.640625 -0.328125 -1.109375q-0.328125 -0.46875 -0.90625 -0.65625q-0.578125 -0.203125 -1.671875 -0.203125l-2.65625 0l0 3.9375zm9.046875 -8.484375l0 -1.609375l1.40625 0l0 1.609375l-1.40625 0zm0 9.84375l0 -8.296875l1.40625 0l0 8.296875l-1.40625 0zm6.6171875 -1.265625l0.203125 1.25q-0.59375 0.125 -1.0625 0.125q-0.765625 0 -1.1875 -0.234375q-0.421875 -0.25 -0.59375 -0.640625q-0.171875 -0.40625 -0.171875 -1.671875l0 -4.765625l-1.03125 0l0 -1.09375l1.03125 0l0 -2.0625l1.40625 -0.84375l0 2.90625l1.40625 0l0 1.09375l-1.40625 0l0 4.84375q0 0.609375 0.0625 0.78125q0.078125 0.171875 0.25 0.28125q0.171875 0.09375 0.484375 0.09375q0.234375 0 0.609375 -0.0625zm12.734375 -7.390625l-1.40625 0.109375q-0.1875 -0.828125 -0.53125 -1.203125q-0.5625 -0.59375 -1.40625 -0.59375q-0.671875 0 -1.171875 0.375q-0.671875 0.484375 -1.0625 1.421875q-0.375 0.921875 -0.390625 2.640625q0.515625 -0.78125 1.25 -1.15625q0.734375 -0.375 1.53125 -0.375q1.40625 0 2.390625 1.046875q1.0 1.03125 1.0 2.671875q0 1.078125 -0.46875 2.0q-0.46875 0.921875 -1.28125 1.421875q-0.8125 0.5 -1.84375 0.5q-1.75 0 -2.859375 -1.296875q-1.109375 -1.296875 -1.109375 -4.265625q0 -3.328125 1.21875 -4.828125q1.078125 -1.3125 2.890625 -1.3125q1.34375 0 2.203125 0.765625q0.875 0.75 1.046875 2.078125zm-5.75 4.9375q0 0.734375 0.3125 1.40625q0.3125 0.65625 0.859375 1.0q0.5625 0.34375 1.171875 0.34375q0.890625 0 1.53125 -0.71875q0.640625 -0.71875 0.640625 -1.953125q0 -1.1875 -0.640625 -1.859375q-0.625 -0.6875 -1.59375 -0.6875q-0.953125 0 -1.625 0.6875q-0.65625 0.671875 -0.65625 1.78125z" fill-rule="nonzero"/><path fill="#000000" fill-opacity="0.0" d="m375.0866 6.133858l61.543304 0l0 38.771652l-61.543304 0z" fill-rule="evenodd"/><path fill="#000000" d="m391.02234 30.493858l0 -11.453125l4.296875 0q1.3125 0 2.109375 0.34375q0.796875 0.34375 1.234375 1.078125q0.453125 0.71875 0.453125 1.5q0 0.734375 -0.40625 1.390625q-0.390625 0.640625 -1.1875 1.046875q1.03125 0.296875 1.59375 1.03125q0.5625 0.734375 0.5625 1.734375q0 0.8125 -0.34375 1.5q-0.34375 0.6875 -0.84375 1.0625q-0.5 0.375 -1.25 0.578125q-0.75 0.1875 -1.84375 0.1875l-4.375 0zm1.515625 -6.640625l2.484375 0q1.0 0 1.4375 -0.140625q0.578125 -0.171875 0.875 -0.5625q0.296875 -0.40625 0.296875 -1.0q0 -0.578125 -0.28125 -1.0q-0.265625 -0.4375 -0.78125 -0.59375q-0.5 -0.171875 -1.734375 -0.171875l-2.296875 0l0 3.46875zm0 5.28125l2.859375 0q0.734375 0 1.03125 -0.046875q0.515625 -0.09375 0.859375 -0.3125q0.359375 -0.21875 0.578125 -0.640625q0.234375 -0.421875 0.234375 -0.96875q0 -0.640625 -0.328125 -1.109375q-0.328125 -0.46875 -0.90625 -0.65625q-0.578125 -0.203125 -1.671875 -0.203125l-2.65625 0l0 3.9375zm9.046875 -8.484375l0 -1.609375l1.40625 0l0 1.609375l-1.40625 0zm0 9.84375l0 -8.296875l1.40625 0l0 8.296875l-1.40625 0zm6.6171875 -1.265625l0.203125 1.25q-0.59375 0.125 -1.0625 0.125q-0.765625 0 -1.1875 -0.234375q-0.421875 -0.25 -0.59375 -0.640625q-0.171875 -0.40625 -0.171875 -1.671875l0 -4.765625l-1.03125 0l0 -1.09375l1.03125 0l0 -2.0625l1.40625 -0.84375l0 2.90625l1.40625 0l0 1.09375l-1.40625 0l0 4.84375q0 0.609375 0.0625 0.78125q0.078125 0.171875 0.25 0.28125q0.171875 0.09375 0.484375 0.09375q0.234375 0 0.609375 -0.0625zm5.53125 -8.6875l0 -1.359375l7.40625 0l0 1.09375q-1.09375 1.171875 -2.171875 3.109375q-1.0625 1.921875 -1.65625 3.953125q-0.421875 1.4375 -0.53125 3.15625l-1.453125 0q0.03125 -1.359375 0.53125 -3.265625q0.515625 -1.921875 1.453125 -3.6875q0.953125 -1.78125 2.03125 -3.0l-5.609375 0z" fill-rule="nonzero"/><path fill="#000000" fill-opacity="0.0" d="m436.6299 6.133858l61.543304 0l0 38.771652l-61.543304 0z" fill-rule="evenodd"/><path fill="#000000" d="m452.56564 30.493858l0 -11.453125l4.296875 0q1.3125 0 2.109375 0.34375q0.796875 0.34375 1.234375 1.078125q0.453125 0.71875 0.453125 1.5q0 0.734375 -0.40625 1.390625q-0.390625 0.640625 -1.1875 1.046875q1.03125 0.296875 1.59375 1.03125q0.5625 0.734375 0.5625 1.734375q0 0.8125 -0.34375 1.5q-0.34375 0.6875 -0.84375 1.0625q-0.5 0.375 -1.25 0.578125q-0.75 0.1875 -1.84375 0.1875l-4.375 0zm1.515625 -6.640625l2.484375 0q1.0 0 1.4375 -0.140625q0.578125 -0.171875 0.875 -0.5625q0.296875 -0.40625 0.296875 -1.0q0 -0.578125 -0.28125 -1.0q-0.265625 -0.4375 -0.78125 -0.59375q-0.5 -0.171875 -1.734375 -0.171875l-2.296875 0l0 3.46875zm0 5.28125l2.859375 0q0.734375 0 1.03125 -0.046875q0.515625 -0.09375 0.859375 -0.3125q0.359375 -0.21875 0.578125 -0.640625q0.234375 -0.421875 0.234375 -0.96875q0 -0.640625 -0.328125 -1.109375q-0.328125 -0.46875 -0.90625 -0.65625q-0.578125 -0.203125 -1.671875 -0.203125l-2.65625 0l0 3.9375zm9.046875 -8.484375l0 -1.609375l1.40625 0l0 1.609375l-1.40625 0zm0 9.84375l0 -8.296875l1.40625 0l0 8.296875l-1.40625 0zm6.6171875 -1.265625l0.203125 1.25q-0.59375 0.125 -1.0625 0.125q-0.765625 0 -1.1875 -0.234375q-0.421875 -0.25 -0.59375 -0.640625q-0.171875 -0.40625 -0.171875 -1.671875l0 -4.765625l-1.03125 0l0 -1.09375l1.03125 0l0 -2.0625l1.40625 -0.84375l0 2.90625l1.40625 0l0 1.09375l-1.40625 0l0 4.84375q0 0.609375 0.0625 0.78125q0.078125 0.171875 0.25 0.28125q0.171875 0.09375 0.484375 0.09375q0.234375 0 0.609375 -0.0625zm7.59375 -4.953125q-0.875 -0.3125 -1.296875 -0.90625q-0.421875 -0.59375 -0.421875 -1.421875q0 -1.25 0.890625 -2.09375q0.90625 -0.859375 2.40625 -0.859375q1.5 0 2.40625 0.875q0.921875 0.859375 0.921875 2.109375q0 0.796875 -0.421875 1.390625q-0.421875 0.59375 -1.265625 0.90625q1.046875 0.34375 1.59375 1.109375q0.5625 0.765625 0.5625 1.828125q0 1.46875 -1.046875 2.484375q-1.03125 1.0 -2.734375 1.0q-1.6875 0 -2.734375 -1.0q-1.03125 -1.015625 -1.03125 -2.515625q0 -1.125 0.5625 -1.875q0.5625 -0.75 1.609375 -1.03125zm-0.28125 -2.375q0 0.8125 0.515625 1.328125q0.53125 0.515625 1.375 0.515625q0.8125 0 1.328125 -0.515625q0.515625 -0.515625 0.515625 -1.25q0 -0.78125 -0.53125 -1.296875q-0.53125 -0.53125 -1.328125 -0.53125q-0.8125 0 -1.34375 0.515625q-0.53125 0.515625 -0.53125 1.234375zm-0.453125 5.28125q0 0.609375 0.28125 1.171875q0.296875 0.5625 0.859375 0.875q0.5625 0.296875 1.203125 0.296875q1.015625 0 1.671875 -0.640625q0.65625 -0.65625 0.65625 -1.65625q0 -1.015625 -0.6875 -1.671875q-0.671875 -0.671875 -1.6875 -0.671875q-0.984375 0 -1.640625 0.65625q-0.65625 0.65625 -0.65625 1.640625z" fill-rule="nonzero"/></g></svg>